<?xml version="1.0" encoding="utf-8"?>
<!-- Generator: Adobe Illustrator 22.0.1, SVG Export Plug-In . SVG Version: 6.00 Build 0)  -->
<svg version="1.1" id="Layer_1" xmlns="http://www.w3.org/2000/svg" xmlns:xlink="http://www.w3.org/1999/xlink" x="0px" y="0px"
	 viewBox="0 0 500 500" style="enable-background:new 0 0 500 500;" xml:space="preserve">
<style type="text/css">
	.st0{opacity:0.5;}
	.st1{fill:#FFFFFF;}
	.st2{fill:#F05024;}
</style>
<g class="st0">
	
		<image style="overflow:visible;" width="543" height="543" xlink:href="6BB2B9C5D43DDF99.png"  transform="matrix(1 0 0 1 -21 -19)">
	</image>
</g>
<circle class="st1" cx="250.5" cy="252.5" r="235.5"/>
<g>
	<path class="st2" d="M247.6,171.2c43.2,0,86.4,0,129.7,0.1c3,0,3.6-0.9,3.5-3.7c-0.2-6.3,0-12.7-0.1-19c-0.1-10.2-4.4-14.8-14.5-15
		c-10.4-0.2-20.9,0-31.3-0.2c-1.9,0-2.5,0.6-2.7,2.4c-1,6.8-6,10.9-12.7,10.6c-6.4-0.4-10.9-5-11-11.9c-0.2-12.3-0.2-24.7,0-37
		c0.1-6.7,5.1-11.3,11.8-11.6c6.1-0.2,11.4,4.6,12,11.2c0.3,3.5,0.3,7,0.2,10.4c-0.1,2.2,0.7,2.8,2.9,2.8c11.5-0.1,23-0.2,34.5,0.2
		c10.4,0.3,19.2,4.4,26.1,12.2c6.3,7.3,9,16.1,9,25.7c0,71.8,0,143.6,0,215.5c0,22.4-15.7,38-38,38.1c-34.7,0.1-69.4,0.1-104.1,0.1
		c-44.6,0-89.2,0-133.8,0c-23.4,0-38.9-15.4-38.9-38.9c0-71.2,0-142.6,0-213.8c0-15.9,6.2-28.2,20.9-35.4c5.4-2.6,11.3-3.5,17.2-3.5
		c9.9,0,19.8-0.1,29.7-0.1c4.6,0,4.6,0,4.6-4.4c0-2.9,0-5.7,0.2-8.5c0.6-6.6,5.8-11.4,11.8-11.3c7,0.1,11.9,4.9,12,12
		c0.2,12.2,0.2,24.5,0,36.6c-0.2,8.6-7.3,13.6-15.4,11.3c-4.8-1.4-7.6-4.8-8.2-9.8c-0.2-2-0.7-2.7-2.9-2.6
		c-10.4,0.2-20.9,0-31.3,0.2c-9.8,0.2-14.2,4.7-14.4,14.5c-0.1,6.7,0.1,13.5-0.1,20.2c-0.1,2.5,0.8,2.9,3,2.9
		C160.8,171.2,204.3,171.2,247.6,171.2z M247.6,190.9c-43.2,0-86.4,0-129.7-0.1c-2.8,0-3.6,0.7-3.6,3.6c0.1,42.7,0.1,85.4,0.1,128.1
		c0,13.5,0,27,0,40.5c0,4.4,0.7,8.6,4.3,11.8c3.1,2.8,7,3.1,11,3.1c78.6,0,157.3,0,236,0c1.6,0,3.4-0.1,5-0.3c4.3-0.7,7.3-3.1,9-7.1
		c1.1-2.5,1.2-5.1,1.2-7.7c0-56.1,0-112.2,0.1-168.3c0-3-0.9-3.5-3.7-3.5C334.1,191,290.9,190.9,247.6,190.9z"/>
	<path class="st2" d="M247.6,133.6c-12.8,0-25.7-0.1-38.5,0.1c-2.2,0-2.8-0.5-2.8-2.7c0.2-6,0.2-12,0-18c0-1.8,0.5-2.3,2.3-2.3
		c25.9,0.1,51.9,0.1,77.7,0c2.1,0,2.5,0.7,2.4,2.5c-0.1,6-0.2,12,0.1,18c0.1,2.2-0.7,2.5-2.6,2.5
		C273.4,133.6,260.5,133.6,247.6,133.6z"/>
	<path class="st2" d="M227,333.9c-3.3-0.2-6.8-1.6-9.7-4.4c-11.2-11.2-22.4-22.4-33.4-33.6c-6.1-6.2-6.1-15.1-0.1-21
		c5.6-5.4,14.5-5.2,20.5,0.7c7.3,7.3,14.5,14.6,21.8,22c1.2,1.3,1.9,1.6,3.4,0.2c21-20.3,41.9-40.6,62.9-60.8c7.2-7,19.6-4.5,23,4.8
		c2.2,5.9,1.6,11.2-4.4,17c-23.8,23.1-47.6,46.2-71.3,69.4C236.3,331.5,232.8,334,227,333.9z"/>
</g>
</svg>
