<?xml version="1.0" encoding="utf-8"?>
<!-- Generator: Adobe Illustrator 22.0.1, SVG Export Plug-In . SVG Version: 6.00 Build 0)  -->
<svg version="1.1" id="Layer_1" xmlns="http://www.w3.org/2000/svg" xmlns:xlink="http://www.w3.org/1999/xlink" x="0px" y="0px"
	 viewBox="0 0 500 500" style="enable-background:new 0 0 500 500;" xml:space="preserve">
<style type="text/css">
	.st0{opacity:0.5;}
	.st1{fill:#FFFFFF;}
	.st2{fill:#EF2525;}
</style>
<g class="st0">
	
		<image style="overflow:visible;" width="543" height="543" xlink:href="261141E206ADA8EF.png"  transform="matrix(1 0 0 1 -21 -19)">
	</image>
</g>
<circle class="st1" cx="250.5" cy="252.5" r="235.5"/>
<g>
	<path class="st2" d="M441.6,203.4c1,30.7-11,56.7-28.5,80.9c-28.3,39-63.2,71.9-97.8,105.1c-15.9,15.3-31.7,30.9-47.5,46.3
		c-3.2,3.2-6.6,6.1-10.9,7.7c-7.3,2.8-13.2-0.3-18.2-5c-8.4-7.8-16.5-16-24.7-23.9c-27.2-26.2-55.3-51.5-81.3-78.9
		c-21.9-23-43.4-46.5-58.3-75C57.2,227.7,55,193.4,69.3,159c7.9-19,23.1-31.4,41.7-39.6c14.9-6.6,30.8-9.9,47-10.9
		c19.7-1.2,38.3,3.7,55.7,12.8c13.8,7.2,25.6,16.7,34.7,29.4c1.8,2.5,3.3,2.8,5.2,0.1c12.2-17.1,28.9-28.3,48.3-35.6
		c20.4-7.7,41.5-8.8,62.9-3.8c15,3.5,29.4,8.2,42.2,17.1c18.8,13.1,29.1,31.4,33.1,53.7C441.3,189.2,441.4,196.4,441.6,203.4z
		 M163.9,137.2c-16.3,0.9-32.8,3.8-47.8,12.2c-12.3,6.9-20.7,17.3-24,31.1c-6.5,27.1-2.3,52.5,13.1,75.9
		c16.3,24.7,36.1,46.4,56.6,67.5c28.2,28.9,58.6,55.7,87,84.4c2.1,2.2,3.5,2.2,5.6,0c22-22.5,45.2-43.6,67.6-65.6
		c24.2-23.8,47.5-48.4,67.7-75.8c17-23,25.9-47.7,22.2-76.4c-2-15.2-7.6-28.8-20.5-37.3c-21.8-14.3-45.8-19.5-71.5-13
		c-22,5.7-39.6,17.6-49.9,38.7c-2.7,5.6-3.4,11.8-5.6,17.5c-3.8,9.6-14.4,12.5-22.5,6.3c-3.7-2.8-4.9-7.1-5.8-11.3
		c-1.9-8.7-5.4-16.8-10.9-23.8C209.7,148.1,188.8,139.3,163.9,137.2z"/>
</g>
</svg>
