<?xml version="1.0" encoding="utf-8"?>
<!-- Generator: Adobe Illustrator 22.0.1, SVG Export Plug-In . SVG Version: 6.00 Build 0)  -->
<svg version="1.1" id="Layer_1" xmlns="http://www.w3.org/2000/svg" xmlns:xlink="http://www.w3.org/1999/xlink" x="0px" y="0px"
	 viewBox="0 0 500 500" style="enable-background:new 0 0 500 500;" xml:space="preserve">
<style type="text/css">
	.st0{fill:#1A77F1;}
</style>
<g>
	<path class="st0" d="M220.8,423.7c-9.6,0.2-18.7-2.8-27.6-5.8c-44-14.3-78.7-40.9-102.8-80.4C62,291.2,54.8,241.3,69.4,189.1
		c15.9-57.2,51.9-98.3,106.2-121.9c49.5-21.5,99.9-21.2,149.5,0.5c48,21,82.1,56.4,99.9,105.5c23.5,65.1,14.3,126.5-27.9,181.7
		c-28.6,37.4-67,59.6-113.1,68.8c-1.6,0.3-3.3,0.2-5,0.4c0-41.7,0.1-83.3-0.1-125c0-4.4,0.8-6.1,5.6-5.9c10.8,0.4,21.7-0.2,32.5,0.3
		c4.8,0.2,6.2-1.7,6.8-6c2-14.5,4.2-29,6.7-43.5c0.8-4.4-0.6-4.9-4.5-4.9c-14.3,0.2-28.7,0.1-43,0.1c-2.3,0-4.2,0.3-4.1-3.2
		c0.2-11.7-0.2-23.3,0.3-35c0.6-14.2,8.9-23.1,23-25.4c8.8-1.4,17.6-0.6,26.4-0.6c3.3,0,4.7-0.6,4.6-4.3c-0.2-12.7-0.2-25.3,0-38
		c0-2.9-0.8-4.3-3.7-4.6c-14.7-1.8-29.4-4-44.3-3c-14,0.9-27.3,4.3-38.8,13c-18.6,14-25.3,33.6-25.8,55.9c-0.3,13.7-0.2,27.3,0,41
		c0,3.2-0.7,4.3-4.1,4.2c-13.2-0.2-26.3,0-39.5-0.2c-3.3,0-4.2,1-4.1,4.2c0.2,15.2,0.2,30.3,0,45.5c-0.1,4,1.4,4.6,4.9,4.5
		c12.8-0.2,25.7,0,38.5-0.2c3.6-0.1,4.6,1.1,4.5,4.6c-0.2,8-0.1,16-0.1,24C220.7,355.7,220.7,389.7,220.8,423.7z"/>
</g>
</svg>
