<?xml version="1.0" encoding="utf-8"?>
<!-- Generator: Adobe Illustrator 22.0.1, SVG Export Plug-In . SVG Version: 6.00 Build 0)  -->
<svg version="1.1" id="Layer_1" xmlns="http://www.w3.org/2000/svg" xmlns:xlink="http://www.w3.org/1999/xlink" x="0px" y="0px"
	 viewBox="0 0 500 500" style="enable-background:new 0 0 500 500;" xml:space="preserve">
<style type="text/css">
	.st0{fill:#010101;}
</style>
<g>
	<path class="st0" d="M252,402.9c-105.8-5-186.8-50.9-240.6-142.7c-3.4-5.8-3.2-10.2,0-16c51.9-95.3,160-152.3,268-140.2
		c94.3,10.5,164.9,57.7,213,139.3c3.8,6.5,3.8,11.4,0,17.9C438.3,352.9,357.2,398.3,252,402.9z M252.5,352.5
		c55-0.2,100.2-45.6,100-100.5c-0.2-55-45.6-100.2-100.5-100c-55,0.2-100.2,45.6-100.1,100.5C152.1,307.4,197.6,352.7,252.5,352.5z"
		/>
	<path class="st0" d="M251.9,202.3c27.4-0.2,50.3,22.5,50.3,49.9c0,27.4-22.8,50.1-50.2,50c-27-0.1-49.4-22.4-49.7-49.4
		C202,225.4,224.5,202.4,251.9,202.3z"/>
</g>
</svg>
