<?xml version="1.0" encoding="utf-8"?>
<!-- Generator: Adobe Illustrator 22.0.1, SVG Export Plug-In . SVG Version: 6.00 Build 0)  -->
<svg version="1.1" id="Layer_1" xmlns="http://www.w3.org/2000/svg" xmlns:xlink="http://www.w3.org/1999/xlink" x="0px" y="0px"
	 viewBox="0 0 500 500" style="enable-background:new 0 0 500 500;" xml:space="preserve">
<style type="text/css">
	.st0{fill:#7DD631;}
	.st1{fill:#FFFFFF;}
</style>
<g>
	<path class="st0" d="M404.4,489H96.6C49.5,489,11,450.5,11,403.4V95.6C11,48.5,49.5,10,96.6,10h307.8c47.1,0,85.6,38.5,85.6,85.6
		v307.8C490,450.5,451.5,489,404.4,489z"/>
</g>
<g>
	<path class="st1" d="M164.3,51.2c9,0.9,15,6,20.2,13.2c14.5,20.3,29.6,40.3,44.4,60.4c8.6,11.6,6.9,23.2-4.6,32
		c-8.9,6.8-17.7,13.5-26.6,20.3c-12.4,9.5-14.6,23.6-5.3,36.3c27.2,37.2,54.5,74.3,81.8,111.3c9.2,12.5,22.8,14.3,35.3,4.9
		c9-6.8,17.9-13.7,26.9-20.5c11-8.3,22.8-6.7,30.9,4.3c15.7,21.2,31.3,42.4,46.9,63.7c8.4,11.5,6.7,23-4.5,31.7
		c-8.7,6.8-17.1,13.9-26.9,19c-22,11.5-45.2,14.4-69.4,9.6c-32.1-6.4-58.3-23.4-81.3-46.1c-28.9-28.5-54.9-59.5-78.3-92.8
		c-14.6-20.9-26.8-43.2-37.5-66.3c-13.6-29.4-21.5-60-18.1-92.7c3.1-30.2,16-55.1,40.6-73.5c5.8-4.3,11.6-8.8,17.3-13.1
		C159,52.4,161.7,51.8,164.3,51.2z"/>
</g>
</svg>
