<?xml version="1.0" encoding="utf-8"?>
<!-- Generator: Adobe Illustrator 22.0.1, SVG Export Plug-In . SVG Version: 6.00 Build 0)  -->
<svg version="1.1" id="Layer_1" xmlns="http://www.w3.org/2000/svg" xmlns:xlink="http://www.w3.org/1999/xlink" x="0px" y="0px"
	 viewBox="0 0 500 500" style="enable-background:new 0 0 500 500;" xml:space="preserve">
<style type="text/css">
	.st0{fill:#7DD631;}
	.st1{fill:#FFFFFF;}
</style>
<g>
	<path class="st0" d="M250.5,489L250.5,489C118.8,489,11,381.2,11,249.5l0,0C11,117.8,118.8,10,250.5,10l0,0
		C382.2,10,490,117.8,490,249.5l0,0C490,381.2,382.2,489,250.5,489z"/>
</g>
<g>
	<path class="st1" d="M170.3,85.2c7.6,0.8,12.7,5.1,17.1,11.2c12.3,17.2,25,34.1,37.6,51.1c7.3,9.8,5.8,19.6-3.9,27.1
		c-7.5,5.8-15,11.4-22.5,17.2c-10.5,8-12.4,20-4.5,30.7c23,31.5,46.1,62.9,69.2,94.2c7.8,10.6,19.3,12.1,29.9,4.1
		c7.6-5.8,15.1-11.6,22.8-17.3c9.3-7,19.3-5.7,26.1,3.6c13.3,17.9,26.5,35.9,39.7,53.9c7.1,9.7,5.7,19.5-3.8,26.8
		c-7.4,5.8-14.5,11.8-22.8,16.1c-18.6,9.7-38.2,12.2-58.7,8.1c-27.2-5.4-49.3-19.8-68.8-39c-24.5-24.1-46.4-50.3-66.2-78.5
		c-12.4-17.7-22.7-36.5-31.7-56.1c-11.5-24.9-18.2-50.8-15.3-78.4c2.6-25.6,13.5-46.6,34.3-62.2c4.9-3.6,9.8-7.4,14.6-11.1
		C165.9,86.2,168.1,85.7,170.3,85.2z"/>
</g>
</svg>
