<?xml version="1.0" encoding="utf-8"?>
<!-- Generator: Adobe Illustrator 22.0.1, SVG Export Plug-In . SVG Version: 6.00 Build 0)  -->
<svg version="1.1" id="Layer_1" xmlns="http://www.w3.org/2000/svg" xmlns:xlink="http://www.w3.org/1999/xlink" x="0px" y="0px"
	 viewBox="0 0 500 500" style="enable-background:new 0 0 500 500;" xml:space="preserve">
<style type="text/css">
	.st0{display:none;}
	.st1{display:inline;}
	.st2{clip-path:url(#SVGID_2_);fill:#FFB539;}
	.st3{opacity:0.51;clip-path:url(#SVGID_4_);fill:#F75C00;enable-background:new    ;}
	.st4{opacity:0.2;clip-path:url(#SVGID_6_);fill:#F75C00;enable-background:new    ;}
	.st5{fill:#E84700;}
	.st6{opacity:0.61;fill:#FFFFFF;enable-background:new    ;}
	.st7{opacity:0.32;fill:#606060;enable-background:new    ;}
	.st8{opacity:0.3;fill:#606060;enable-background:new    ;}
	.st9{opacity:0.6;fill:#FCBE99;enable-background:new    ;}
	.st10{fill:#313F5E;}
	.st11{opacity:0.43;fill:#313F5E;enable-background:new    ;}
	.st12{fill:#F75C00;}
	.st13{opacity:0.43;}
	.st14{fill:none;stroke:#5A657E;stroke-width:2.6344;stroke-linecap:round;stroke-miterlimit:10;}
	.st15{opacity:0.21;fill:#313F5E;enable-background:new    ;}
	.st16{opacity:0.61;}
	.st17{fill:#FFFFFF;}
	.st18{fill:#44291C;}
	.st19{opacity:0.3;fill:#44291C;enable-background:new    ;}
	.st20{fill:none;stroke:#44291C;stroke-width:7.5774;stroke-linecap:round;stroke-miterlimit:10;}
	.st21{fill:#5B3725;}
	.st22{fill:none;stroke:#5B3725;stroke-width:7.5774;stroke-linecap:round;stroke-miterlimit:10;}
	.st23{opacity:0.3;fill:#5B3725;enable-background:new    ;}
	.st24{opacity:0.29;fill:#5B3725;enable-background:new    ;}
	.st25{fill:none;stroke:#5B3725;stroke-width:5.9054;stroke-miterlimit:10;}
	.st26{fill:#FFB539;}
	.st27{fill:#F7671E;}
	.st28{opacity:0.51;fill:#FFB539;enable-background:new    ;}
	.st29{opacity:0.45;fill:#F75C00;enable-background:new    ;}
	.st30{opacity:0.51;}
	.st31{opacity:0.42;fill:#FFB539;enable-background:new    ;}
	.st32{enable-background:new    ;}
	.st33{fill:none;}
	.st34{font-family:'Arista2.0';}
	.st35{font-size:36px;}
	.st36{fill:none;stroke:#FFFFFF;stroke-miterlimit:10;}
	.st37{font-family:'Arista2.0Light';}
	.st38{opacity:0.6;fill:#FFFFFF;}
</style>
<g id="BACKGROUND" class="st0">
	<g class="st1">
		<g>
			<defs>
				<rect id="SVGID_1_" x="-125" width="750" height="500"/>
			</defs>
			<clipPath id="SVGID_2_">
				<use xlink:href="#SVGID_1_"  style="overflow:visible;"/>
			</clipPath>
			<rect x="-125" class="st2" width="750" height="500"/>
		</g>
		<g>
			<defs>
				<rect id="SVGID_3_" x="-125" width="750" height="500"/>
			</defs>
			<clipPath id="SVGID_4_">
				<use xlink:href="#SVGID_3_"  style="overflow:visible;"/>
			</clipPath>
			<path class="st3" d="M842-78.7h-24.2h-48.3H465.1h-22.4H138.3H90H65.8H41.6v59.8c0,4.3,3.4,7.9,7.6,7.9c9,0,16.4,7.2,16.4,16.3
				L65.7,37c0,6.6,5.1,12.4,11.7,12.6C84.3,49.8,90,44.4,90,37.5V-2.2c0-8.8,7.2-16,16-16h15.9c8.8,0,16,7.2,16,16h0.4v67.9v145.4
				c0,3.6,2.9,6.5,6.5,6.5h2.5c3.6,0,6.5,2.9,6.5,6.5v9.5v10.8c0,13.3,10.8,24.2,24.2,24.2l0,0c13.3,0,24.2-10.8,24.2-24.2V241
				c0-9.6,7.8-17.5,17.5-17.5h9.7c9.6,0,17.5,7.8,17.5,17.5v17.2c0,5.8,4.7,10.4,10.4,10.4h26.9c5.8,0,10.1-4.8,10.2-10.6
				c0.1-3.6,3-6.4,6.5-6.4l0,0c3.6,0,6.5,2.9,6.5,6.5v21.1v18.4c0,3.6,2.9,6.5,6.5,6.5h0.1c3.6,0,6.5-2.9,6.5-6.5v-18.4V271
				c0-3.4,2.5-6.5,5.9-6.8c3.9-0.4,7.2,2.7,7.2,6.5v8.5h0.1v32.5c0,7.3,5.9,13.1,13.1,13.1l0,0c7.3,0,13.1-5.9,13.1-13.1V306
				c0-3.6,2.9-6.5,6.5-6.5h13.2c3.6,0,6.5,2.9,6.5,6.5v5.7c0,7.3,5.9,13.1,13.1,13.1c7.3,0,13.1-5.9,13.1-13.1v-9.4
				c0-7,5.3-13.1,12.3-13.6c7.7-0.5,14,5.6,14,13.1v32.7c0,7,5.3,13.1,12.3,13.6c1,0.1,1.9,0,2.8-0.1c0.9,0.1,1.8,0.2,2.8,0.1
				c7-0.5,12.3-6.6,12.3-13.6V302c0-7.5,6.4-13.6,14-13.1c7,0.5,12.3,6.6,12.3,13.6v9.4c0,7.3,5.9,13.1,13.1,13.1
				c7.3,0,13.1-5.9,13.1-13.1v-5.7c0-3.6,2.9-6.5,6.5-6.5H541c3.6,0,6.5,2.9,6.5,6.5v5.7c0,7.3,5.9,13.1,13.1,13.1l0,0
				c7.3,0,13.1-5.9,13.1-13.1v-32.5h0.1v-8.5c0-3.8,3.3-6.9,7.2-6.5c3.4,0.3,5.9,3.4,5.9,6.8v8.2v18.4c0,3.6,2.9,6.5,6.5,6.5h0.1
				c3.6,0,6.5-2.9,6.5-6.5v-18.4v-21.1c0-3.6,2.9-6.5,6.5-6.5l0,0c3.6,0,6.5,2.9,6.5,6.4c0.1,5.8,4.4,10.6,10.2,10.6h26.9
				c5.8,0,10.4-4.7,10.4-10.4V241c0-9.6,7.8-17.5,17.5-17.5h9.7c9.6,0,17.5,7.8,17.5,17.5v3.5c0,13.3,10.8,24.2,24.2,24.2l0,0
				c13.3,0,24.2-10.8,24.2-24.2v-10.8v-9.5c0-3.6,2.9-6.5,6.5-6.5h2.5c3.6,0,6.5-2.9,6.5-6.5V65.8v-68h0.4c0-8.8,7.2-16,16-16h15.9
				c8.8,0,16,7.2,16,16v39.7c0,6.8,5.6,12.3,12.5,12.1c6.6-0.2,11.7-5.9,11.7-12.6l0.1-31.7c0-9,7.4-16.3,16.4-16.3
				c4.3,0,7.6-3.6,7.6-7.9v-59.8H842z"/>
		</g>
		<g>
			<defs>
				<rect id="SVGID_5_" x="-125" width="750" height="500"/>
			</defs>
			<clipPath id="SVGID_6_">
				<use xlink:href="#SVGID_5_"  style="overflow:visible;"/>
			</clipPath>
			<path class="st4" d="M233.7,540c-8.2,0-14.8-6.6-14.8-14.7l-0.1-28.8c0-6-4.6-11.2-10.6-11.4c-6.2-0.2-11.3,4.8-11.3,11v36
				c0,8-6.5,14.5-14.5,14.5H168c-8,0-14.5-6.5-14.5-14.5h-0.3v-61.5V338.8c0-3.3-2.7-5.9-5.9-5.9h-2.2c-3.3,0-5.9-2.7-5.9-5.9v-8.6
				v-9.8c0-12.1-9.8-21.9-21.9-21.9l0,0c-12.1,0-21.9,9.8-21.9,21.9v3.2c0,8.7-7.1,15.8-15.8,15.8h-8.8c-8.7,0-15.8-7.1-15.8-15.8
				v-15.6c0-5.2-4.2-9.5-9.5-9.5H20.9c-5.2,0-9.1,4.3-9.2,9.6c-0.1,3.2-2.7,5.8-5.9,5.8l0,0c-3.3,0-5.9-2.7-5.9-5.9v-19.1v-16.6
				c0-3.3-2.7-5.9-5.9-5.9l0,0c-3.3,0-5.9,2.7-5.9,5.9v16.6v7.4c0,3.1-2.3,5.9-5.3,6.2c-3.5,0.3-6.5-2.4-6.5-5.9v-7.7l0,0v-29.4
				c0-6.6-5.3-11.9-11.9-11.9l0,0c-6.6,0-11.9,5.3-11.9,11.9v5.2c0,3.3-2.7,5.9-5.9,5.9h-12c-3.3,0-5.9-2.7-5.9-5.9v-5.2
				c0-6.6-5.3-11.9-11.9-11.9l0,0c-6.6,0-11.9,5.3-11.9,11.9v8.5c0,6.3-4.8,11.9-11.1,12.3c-6.9,0.4-12.7-5-12.7-11.9V227
				c0-6.3-4.8-11.9-11.1-12.3c-6.9-0.4-12.7,5-12.7,11.9v374.8h296.1h43.8h21.9H241v-54.2C240.6,543.3,237.5,539.9,233.7,540z"/>
		</g>
	</g>
</g>
<g id="OBJECTS">
	<g>
		
			<image style="overflow:visible;opacity:0.24;enable-background:new    ;" width="2050" height="2050" xlink:href="802A97EB1C7D7716.png"  transform="matrix(0.2393 0 0 0.2393 8.64 9.48)">
		</image>
		<g>
			<g>
				<g>
					<path class="st5" d="M50.4,260.6L50.4,260.6c11.2,0,21.3-4.7,28.5-12.1c3.2-3.4,8.9-1.1,8.9,3.6l0,0
						c0,27.5,22.3,49.8,49.8,49.8l0,0c27.5,0,49.8-22.3,49.8-49.8v-61.2c0,16.9,14,30.5,31,29.9c5.8-0.2,11.2-2.1,15.6-5.3
						c4.4-3.1,10.3-0.1,10.3,5.2v0.2c0,21.9,17.8,39.7,39.7,39.7l0,0c11.2,0,21.3-4.7,28.5-12.1c3.2-3.4,8.9-1.1,8.9,3.6l0,0
						c0,27.5,22.3,49.8,49.8,49.8l0,0c27.5,0,49.8-22.3,49.8-49.8v-61.2c0,16.9,14,30.5,31,29.9c16.2-0.6,28.8-14.4,28.8-30.6V38.6
						c0-15-12.1-27.1-27.1-27.1h-32.6h-97.4h-2.2h-74.3h-2.8h-57H90.1h-2.2H47.2C27,11.5,10.7,27.8,10.7,48v173
						C10.7,242.8,28.5,260.6,50.4,260.6z"/>
					<path class="st5" d="M480,465.5c-2.5-0.4-5.1-0.2-7.6-0.2c-8,0-16,0-23.9,0c-16,0-31.9,0-47.9,0c0.1-0.3,0.4-6.7-0.8-6
						c1.2-0.7,2-2.1,1.8-3.7c-0.2-1.8-1.9-3.2-3.8-3.2h-91.2c-1.5,0-2.9,0.7-3.7,2c-0.7,1-0.6,1.9-0.3,2.7c-9.4,0-18.7-0.6-28.1-0.7
						c-7.6-0.1-17.4-1.3-24.6,1.5c-5.8,2.3-5.4,10.7,1.4,10.7h76.9c2.7,0,4.7,2.2,4.7,4.9c0,0,0,0,0,0.1v7.7c0,4.6,3.7,8.4,8.4,8.4
						c23.2,0,46.3,0,69.5,0c13.6,0,27.1,0,40.7,0c5.3,0,10.6,0,15.8,0c5.2,0,13.1,1.5,17.4-1.5C492.5,482.9,489.4,466.8,480,465.5z"
						/>
					<path class="st6" d="M340.6,483.5L340.6,483.5c0-1,1.7-1.9,3.7-1.9l29.8,1.4l-29.8,2.3C342.3,485.4,340.6,484.6,340.6,483.5z"
						/>
					<path class="st6" d="M305.7,456.9L305.7,456.9c0-1,1.7-1.9,3.7-1.9l29.8,1.4l-29.8,2.3C307.3,458.8,305.7,458,305.7,456.9z"/>
					<path class="st7" d="M396.8,463.2l16-11.7c1.2-0.9,2-2.4,2-3.9l0,0c0-2.7-2.2-4.9-4.9-4.8l-21.8,0.1L396.8,463.2z"/>
					<path class="st8" d="M384.9,266.3V318h2.1l-1.9,93.1c-0.1,2.8-2.4,5-5.1,5h-36.3c-6.6,0-11.9,5.3-11.9,11.9v17.8h6.7V428
						c0-2.8,2.3-5.1,5.1-5.1h36.3c6.4,0,11.7-5.2,11.9-11.6l2-93.6c1.8-0.7,3.2-2.4,3.2-4.5v-40.4c0-3.6-2.9-6.5-6.5-6.5H384.9z"/>
					<g>
						<polygon class="st9" points="294,473.2 167.8,472.4 181.5,458.5 279.4,458.5 						"/>
						<g>
							<g>
								<path class="st10" d="M180.5,200.6l1.1,76.7c0,1.6,13.6,4.8,30.5,4.8c16.8,0,30.5-3.3,30.5-4.8l1.1-76.7L180.5,200.6
									L180.5,200.6z"/>
								<path class="st10" d="M243.6,204.6h-63.2c-1.1,0-2-0.9-2-2l0,0c0-1.1,0.9-2,2-2h63.2c1.1,0,2,0.9,2,2l0,0
									C245.6,203.7,244.7,204.6,243.6,204.6z"/>
								<path class="st11" d="M202.6,264.9c-7.7,3.2-15.3,2.4-21,0.6v11.7c0,1.6,13.6,4.8,30.5,4.8c16.8,0,30.5-3.3,30.5-4.8
									l0.8-67.7C239,230.1,227.8,254.5,202.6,264.9z"/>
								<path class="st12" d="M204,200.2L204,200.2l-15,0.1h-0.9l0,0c-1.5,0-2.8,1.2-2.8,2.8v6.5c0,0.9,0.6,1.7,1.5,1.9
									c1.1,0.2,2.1-0.7,2.1-1.8v-1.3c0-3.5,3-6.2,6.5-5.8c0.1,0,0.3,0,0.4,0c4.7,0.7,8.1,4.9,8.1,9.6c0,2.8,0,5.8,0,7.8
									c0,2.1,1.5,3.9,3.6,4c2.2,0.1,4-1.6,4-3.8v-12c0-0.9,0.6-1.7,1.4-2c0.3-0.1,0.6-0.1,0.8-0.1c0.6,0,1.1,0.2,1.6,0.5
									c0.5,0.4,0.8,1,0.8,1.7v18c0,1.2,0.8,2.2,1.9,2.5l0,0c1.5,0.4,2.6,1.8,2.6,3.4c0,2.6,0,6.4,0,8.9c0,2.3,1.7,4.4,4,4.6
									c2.7,0.3,4.9-1.8,4.9-4.4V206c0-1.1,0.9-2,2-2l0,0c0.2,0,0.3,0,0.5,0c1,0.2,1.7,1.1,1.7,2.1c0,2.7,0,9.7,0,13.1
									c0,2.1,1.5,3.9,3.6,4c2.2,0.1,4-1.6,4-3.8v-15.6c0-1.8-1.5-3.3-3.3-3.3L204,200.2z"/>
								<path class="st6" d="M223.2,243.1L223.2,243.1c-0.8,0-1.4-0.6-1.4-1.4l0.8-17.9l2,17.9C224.6,242.4,223.9,243.1,223.2,243.1
									z"/>
								<path class="st6" d="M235.4,220.4L235.4,220.4c-0.4,0-0.7-0.3-0.7-0.7l0.4-8.9l1,8.9C236.1,220.1,235.8,220.4,235.4,220.4z"
									/>
								<path class="st6" d="M217.6,227.7L217.6,227.7c-0.4,0-0.8-0.4-0.8-0.8l0.5-9.9l1.1,9.9C218.4,227.3,218,227.7,217.6,227.7z"
									/>
								<path class="st6" d="M205.5,221.4L205.5,221.4c-0.4,0-0.8-0.4-0.8-0.8l0.5-9.9l1.1,9.9C206.3,221.1,206,221.4,205.5,221.4z"
									/>
								<path class="st6" d="M186,209.9L186,209.9c-0.2,0-0.4-0.2-0.4-0.4l0.2-4.9l0.5,4.9C186.4,209.8,186.3,209.9,186,209.9z"/>
								<g class="st13">
									<path class="st10" d="M242.5,250.8c-1.4,2.8-3.1,5.4-5.1,7.8c-5.2,5.9-12.1,9-20.6,9.3c-12.5,0.5-22.4-3-29.4-10.4
										c-2.3-2.5-4.2-5.3-5.8-8.2v5.8c1.1,1.6,2.3,3.1,3.6,4.5c7.1,7.5,17,11.4,29.2,11.4c0.8,0,1.6,0,2.5,0
										c9.3-0.4,17-3.9,22.8-10.4c1.1-1.2,2-2.5,2.9-3.8L242.5,250.8L242.5,250.8z"/>
									<path class="st10" d="M241.2,215.3c0,0.8,0.6,1.4,1.4,1.5v-3C241.8,213.9,241.2,214.5,241.2,215.3z"/>
									<path class="st10" d="M181.6,216.5c0.4-0.3,0.6-0.7,0.6-1.2s-0.2-0.9-0.6-1.2V216.5z"/>
								</g>
								<path class="st14" d="M179.6,212.5h-5.7c0,0-5.4,56,42.9,54.1c37.5-1.5,33.3-54.1,33.3-54.1h-5.2"/>
								<polygon class="st15" points="243.5,205.4 243.6,204.4 180.6,204.4 180.6,205.4 								"/>
								<g class="st16">
									<path class="st17" d="M187.8,200.9l14.9,0.3l-14.9,0.7c-0.3,0-0.5-0.2-0.5-0.5C187.3,201.2,187.5,200.9,187.8,200.9
										L187.8,200.9z"/>
								</g>
								<path class="st12" d="M185.4,203v1.6h4.8c1.2-1.5,3.2-2.5,5.3-2.2c0.1,0,0.3,0,0.4,0c1.8,0.3,3.4,1,4.7,2.2h29.5
									c0.4-0.5,1-0.9,1.6-0.9c0.2,0,0.3,0,0.5,0c0.5,0.1,1,0.4,1.3,0.8h8v-1.1c0-1.3-0.7-2.4-1.8-3h-52.8
									C186,201,185.4,201.9,185.4,203z"/>
							</g>
							<g>
								<g>
									<path class="st18" d="M287.4,352.6H173.8c-1.9,0-3.4-1.5-3.4-3.4V348c0-1.9,1.5-3.4,3.4-3.4h113.6c1.9,0,3.4,1.5,3.4,3.4
										v1.2C290.7,351.1,289.2,352.6,287.4,352.6z"/>
									<path class="st19" d="M287,349.9H174.1c-1.6,0-3-1.1-3.5-2.6c-0.1,0.4-0.2,0.9-0.2,1.3c0,2.2,1.7,4,3.7,4H287
										c2,0,3.7-1.8,3.7-4c0-0.5-0.1-0.9-0.2-1.3C290,348.8,288.6,349.9,287,349.9z"/>
								</g>
								<g>
									<path class="st18" d="M285.1,418H173.8c-1.8,0-3.3-1.5-3.3-3.3v-1.2c0-1.8,1.5-3.3,3.3-3.3h111.3c1.8,0,3.3,1.5,3.3,3.3
										v1.2C288.4,416.5,287,418,285.1,418z"/>
									<path class="st19" d="M284.8,415.3H174.1c-1.6,0-2.9-1.1-3.4-2.6c-0.1,0.4-0.2,0.9-0.2,1.3c0,2.2,1.6,4,3.6,4h110.7
										c2,0,3.6-1.8,3.6-4c0-0.5-0.1-0.9-0.2-1.3C287.7,414.2,286.4,415.3,284.8,415.3z"/>
								</g>
								<line class="st20" x1="259.9" y1="286.1" x2="279.4" y2="458.5"/>
								<line class="st20" x1="181.5" y1="458.5" x2="201.1" y2="286.1"/>
								<path class="st21" d="M289.7,294H171.6c-2.8,0-5-2.2-5-5v-5.8c0-2.8,2.2-5,5-5h118.1c2.8,0,5,2.2,5,5v5.8
									C294.7,291.7,292.4,294,289.7,294z"/>
								<line class="st22" x1="292.5" y1="469.3" x2="273" y2="286.1"/>
								<line class="st22" x1="168.1" y1="469.3" x2="187.6" y2="286.1"/>
								<g>
									<path class="st21" d="M294.7,431.2c0-1.2-0.9-2.3-2.1-2.4l0.5,4.7C294,433.1,294.7,432.2,294.7,431.2z"/>
									<path class="st21" d="M283.9,428.7h8.4c0.1,0,0.2,0,0.3,0l-7.3-68.3h-8.7L283.9,428.7z"/>
									<polygon class="st21" points="276.1,355.5 284.7,355.5 279,301.9 270.4,301.9 									"/>
									<path class="st21" d="M296.8,468.9l-3.8-35.4c-0.3,0.1-0.5,0.2-0.8,0.2h-7.8l3.9,36.2c0.2,2.2,2.1,3.9,4.3,3.9
										c0.2,0,0.3,0,0.5,0C295.3,473.4,297.1,471.2,296.8,468.9z"/>
									<polygon class="st21" points="279,301.9 278.2,294 269.5,294 270.4,301.9 									"/>
									<polygon class="st21" points="266,301.9 265.2,294 256.5,294 257.3,301.9 									"/>
									<polygon class="st21" points="276.6,360.4 285.3,360.4 284.7,355.5 276.1,355.5 									"/>
									<path class="st21" d="M293,433.5l-0.5-4.7c-0.1,0-0.2,0-0.3,0h-8.4l0.5,4.9h7.8C292.5,433.6,292.8,433.6,293,433.5z"/>
									<path class="st21" d="M191.9,286.5c0.3-2.4-1.5-4.5-3.8-4.7c-2.4-0.3-4.5,1.5-4.7,3.8l-0.9,8.4h8.7L191.9,286.5z"/>
									<path class="st21" d="M176.7,428.7l7.3-68.3h-8.7l-7.3,68.5c0.3-0.1,0.6-0.2,1-0.2H176.7z"/>
									<polygon class="st21" points="190.3,301.9 181.6,301.9 175.9,355.5 184.5,355.5 									"/>
									<path class="st21" d="M167.6,433.2l-3.8,35.7c-0.3,2.4,1.5,4.5,3.8,4.7c0.2,0,0.3,0,0.5,0c2.2,0,4-1.6,4.3-3.9l3.9-36.2
										H169C168.5,433.6,168,433.4,167.6,433.2z"/>
									<polygon class="st21" points="191.1,294 182.4,294 181.6,301.9 190.3,301.9 									"/>
									<polygon class="st21" points="204.5,294 195.8,294 195,301.9 203.6,301.9 									"/>
									<polygon class="st21" points="184.5,355.5 175.9,355.5 175.3,360.4 184,360.4 									"/>
									<path class="st21" d="M169,428.7c-0.3,0-0.7,0.1-1,0.2l-0.5,4.3c0.4,0.3,0.9,0.5,1.4,0.5h7.2l0.5-4.9H169V428.7z"/>
								</g>
								<g>
									<path class="st21" d="M290.7,356.9H170.5c-2.2,0-4-1.8-4-4l0,0c0-2.2,1.8-4,4-4h120.2c2.2,0,4,1.8,4,4l0,0
										C294.7,355.1,292.9,356.9,290.7,356.9z"/>
									<path class="st23" d="M290.7,354.2H170.5c-1.7,0-3.1-1.1-3.7-2.6c-0.2,0.4-0.3,0.9-0.3,1.3c0,2.2,1.8,4,4,4h120.2
										c2.2,0,4-1.8,4-4c0-0.5-0.1-0.9-0.3-1.3C293.9,353.1,292.4,354.2,290.7,354.2z"/>
								</g>
								<path class="st24" d="M289,289.7H172.3c-3.2,0-5.7-2.6-5.7-5.7v4.3c0,3.2,2.6,5.7,5.7,5.7H289c3.2,0,5.7-2.6,5.7-5.7V284
									C294.7,287.1,292.1,289.7,289,289.7z"/>
								<g>
									<path class="st21" d="M290.7,430.1H170.5c-2.2,0-4-1.8-4-4l0,0c0-2.2,1.8-4,4-4h120.2c2.2,0,4,1.8,4,4l0,0
										C294.7,428.3,292.9,430.1,290.7,430.1z"/>
									<path class="st23" d="M294.4,424.7c-0.6,1.5-2,2.5-3.7,2.5H170.5c-1.7,0-3.1-1-3.7-2.5c-0.2,0.4-0.3,0.9-0.3,1.4
										c0,2.2,1.8,4,4,4h120.2c2.2,0,4-1.8,4-4C294.7,425.6,294.6,425.1,294.4,424.7z"/>
								</g>
							</g>
						</g>
					</g>
					<g>
						<path class="st12" d="M255.4,277.3H229c-0.9,0-1.7,0.7-1.7,1.7c0,0.2,0,0.4,0.1,0.5c-0.1,0.1-0.1,0.2-0.1,0.4v1.9
							c0,0.3,0.2,0.5,0.4,0.5c0.7,0.1,0.6-0.8,0.6-1.2c0-0.2,0.1-0.4,0.3-0.5c0.1,0,0.2,0,0.3,0c0.8,0,1.6,0,2.5,0
							c0.5,0,0.7,0.1,0.9,0.6c0.2,0.4,0.3,0.9,0.3,1.4c0,0.8,0,1.7,0,2.2c0,0.6,0.4,1.1,1,1.2c0.6,0,1.2-0.5,1.2-1.1v-3.5
							c0-0.3,0.2-0.5,0.4-0.6c0.1,0,0.2,0,0.2,0c0.2,0,0.3,0.1,0.5,0.1c0.2,0.1,0.2,0.3,0.2,0.5v5.2c0,0.3,0.2,0.6,0.6,0.7
							c0.4,0.1,0.8,0.5,0.8,1c0,0.8,0,1.9,0,2.6s0.5,1.3,1.2,1.3c0.8,0.1,1.4-0.5,1.4-1.3c0-1.8,0-3.7,0-5.5c0-0.8,0-1.7,0-2.5
							c0-0.4-0.2-2.1,0.2-2.2c0.2-0.1,0.4-0.1,0.6-0.1c0.1,0,0.2,0,0.2,0.1c0.3,0.2,0.1,0.8,0.1,1.1c0,0.9,0,1.8,0,2.8
							c0,0.6,0.4,1.1,1,1.2c0.6,0,1.2-0.5,1.2-1.1v-2c0-1,0.8-1.9,1.9-1.9h10c0.9,0,1.7-0.7,1.7-1.7
							C257.1,278,256.3,277.3,255.4,277.3z"/>
						<path class="st6" d="M238.2,290.8L238.2,290.8c-0.2,0-0.4-0.2-0.4-0.4l0.2-5.2l0.6,5.2C238.6,290.7,238.4,290.8,238.2,290.8z"
							/>
						<path class="st6" d="M236.6,286.4L236.6,286.4c-0.1,0-0.2-0.1-0.2-0.2l0.1-2.9l0.3,2.9C236.8,286.3,236.7,286.4,236.6,286.4z"
							/>
						<path class="st6" d="M233.1,284.6L233.1,284.6c-0.1,0-0.2-0.1-0.2-0.2l0.1-2.9l0.3,2.9C233.3,284.5,233.2,284.6,233.1,284.6z"
							/>
						<path class="st6" d="M227.5,281.3L227.5,281.3c-0.1,0-0.1-0.1-0.1-0.1l0.1-1.4l0.2,1.4C227.6,281.2,227.5,281.3,227.5,281.3z"
							/>
					</g>
					<g>
						<path class="st25" d="M344.3,451.6h-19.6c-4.5,0-7.7-3.7-7.2-8.4l1.8-14.9c0.6-4.6,4.7-8.3,9.2-8.3h33c4.5,0,8.7-3.7,9.2-8.3
							l17.4-141.2"/>
						<g>
							<g>
								<path class="st26" d="M398.5,439.1c0,0-65-0.1-65.1-0.1c-2.3-0.3-4.9,4.9-5.7,11.6c-0.6,4.6-0.1,8.7,1,10.9
									c0.3,1,1,1.6,2.1,1.7l65.4-0.1c2.1-0.2,3.6-3,4-6.1l0.4-12.2C400.8,441.7,401.6,439.1,398.5,439.1z"/>
								<path class="st27" d="M398.5,439.1c0,0-18.1,0-35.2-0.1c-1.9,0-3.4,1.5-3.4,3.4l0,0c0,1.9-1.5,3.4-3.4,3.4h-27.9
									c-0.4,1.4-0.7,3-0.9,4.7c-0.1,1.1-0.2,2.1-0.2,3.1h32.2c3.3,0,6.3,1.8,7.9,4.4c1.9,3.1,5.2,5,8.8,5h19.7
									c2.1-0.2,3.6-3,4-6.1l0.4-12.2C400.8,441.7,401.6,439.1,398.5,439.1z"/>
								<path class="st28" d="M394,457.7h-60.5c-3.1,0-5.3-2.5-4.9-5.7l-0.7,5.5c-0.4,3.1,1.8,5.7,4.9,5.7h60.5
									c3.1,0,5.9-2.5,6.3-5.7l0.7-5.5C399.9,455.1,397,457.7,394,457.7z"/>
								<path class="st29" d="M327.6,454.2c0.8-6.7,1.3-11.6,5.7-11.6c0.1,0,65.1,0.1,65.1,0.1c1.2,0,1.8,0.4,2.1,1
									c0.4-2.6,0.6-4.6-2.1-4.6c0,0-65-0.1-65.1-0.1c-2.3-0.3-4.9,4.9-5.7,11.6c-0.3,2.1-0.3,4-0.2,5.7
									C327.5,455.6,327.6,454.9,327.6,454.2z"/>
							</g>
						</g>
						<g>
							<path class="st26" d="M383.1,319h-1.6c-3.4,0-5.8-2.8-5.4-6.3l5.6-45.8c0.4-3.5,3.5-6.3,7-6.3h1.6c3.4,0,5.8,2.8,5.4,6.3
								l-5.6,45.8C389.6,316.2,386.5,319.1,383.1,319z"/>
							<g class="st30">
								<path class="st31" d="M392.6,261.2l-5.5,44.4c-0.4,3.5-3.5,6.3-7,6.3h-1.6c-0.8,0-1.6-0.2-2.3-0.5l-0.2,1.3
									c-0.4,3.5,2,6.3,5.4,6.3h1.6c3.4,0,6.5-2.8,7-6.3l5.6-45.8C396,264.4,394.7,262.1,392.6,261.2z"/>
							</g>
						</g>
						<path class="st12" d="M401.8,451.6c-0.8,6.7-3.4,11.8-5.7,11.6c-2.3-0.3-3.6-5.9-2.8-12.6c0.8-6.7,3.4-11.8,5.7-11.6
							C401.4,439.3,402.7,444.9,401.8,451.6z"/>
						<path class="st21" d="M399.6,451.4c-0.3,2.2-1.3,3.8-2.4,3.7c-1-0.1-1.7-2-1.4-4.2c0.3-2.2,1.3-3.8,2.4-3.7
							C399.3,447.4,399.9,449.2,399.6,451.4z"/>
					</g>
				</g>
			</g>
		</g>
	</g>
</g>
<g>
	<g class="st32">
		<path class="st17" d="M146.7,58.5c0.2-0.2,0.4-0.3,0.6-0.5c2.8-2.8,5.6-5.7,8.5-8.5c4.7-4.3,10.3-5.6,16.3-3.6
			c6,2,9.7,6.3,10.9,12.6c1,5.6-0.6,10.5-4.6,14.6c-3.9,4-7.8,7.9-11.8,11.8c-6.2,6.1-16.7,5.9-22.8-0.3c-0.9-0.9-1.6-1.8-2.2-2.9
			c-0.2-0.3-0.2-0.5,0.1-0.8c1.7-1.6,3.3-3.3,4.9-4.9c0.1-0.1,0.1-0.1,0.2-0.2c0.7-0.6,0.8-0.6,1.1,0.3c2.1,5.3,9.1,6.8,13.2,2.7
			c3.9-3.9,7.8-7.8,11.7-11.7c3.1-3.1,3.2-8.1,0.1-11.4c-3-3.1-8.1-3.4-11.3-0.4c-1.4,1.3-2.8,2.7-4.1,4.1c-0.2,0.2-0.4,0.3-0.8,0.2
			c-3.2-1.1-6.4-1.5-9.7-1c-0.1,0-0.1,0-0.2,0C146.8,58.6,146.7,58.6,146.7,58.5z"/>
		<path class="st17" d="M158.3,93.4c-0.3,0.3-0.4,0.4-0.5,0.6c-2.8,2.8-5.6,5.7-8.5,8.4c-4.6,4.2-10,5.5-16,3.7
			c-5.9-1.8-9.7-5.9-11.1-11.9c-1.4-5.8,0.1-11,4.3-15.3c3.9-4.1,7.9-8.1,12-12c6.6-6.3,17-5.8,23.2,0.9c0.7,0.8,1.3,1.6,1.8,2.5
			c0.2,0.3,0.2,0.5-0.1,0.7c-1.7,1.7-3.4,3.4-5.1,5c-0.1,0.1-0.2,0.2-0.3,0.3c-0.4,0.3-0.6,0.4-0.8-0.3c-2-5.4-8.9-7.1-13-3.1
			c-4.1,3.9-8.2,8-12.1,12.1c-2.5,2.6-2.8,5.7-1.4,8.9c1.3,2.9,4.4,4.8,7.6,4.7c2.2-0.1,4.1-1,5.7-2.5c1.2-1.2,2.4-2.4,3.7-3.7
			c0.2-0.2,0.4-0.3,0.7-0.2c2.8,1,5.7,1.4,8.6,1.2c0.3,0,0.6,0,0.8,0C157.9,93.3,158,93.4,158.3,93.4z"/>
	</g>
	<rect x="190.1" y="72" class="st33" width="93.2" height="25.2"/>
	<text transform="matrix(1 0 0 1 190.0966 94.9028)" class="st17 st34 st35">Smart</text>
	<rect x="283" y="72" class="st33" width="72.6" height="25.2"/>
	<text transform="matrix(1 0 0 1 282.9727 95.1909)" class="st36 st37 st35">Links</text>
	<rect x="283" y="72" class="st33" width="72.6" height="25.2"/>
	<text transform="matrix(1 0 0 1 282.9727 95.1909)" class="st38 st37 st35">Links</text>
</g>
</svg>
