<?xml version="1.0" encoding="utf-8"?>
<!-- Generator: Adobe Illustrator 22.0.1, SVG Export Plug-In . SVG Version: 6.00 Build 0)  -->
<svg version="1.1" id="Layer_1" xmlns="http://www.w3.org/2000/svg" xmlns:xlink="http://www.w3.org/1999/xlink" x="0px" y="0px"
	 viewBox="0 0 500 500" style="enable-background:new 0 0 500 500;" xml:space="preserve">
<style type="text/css">
	.st0{clip-path:url(#SVGID_2_);fill:#38B54B;}
	.st1{clip-path:url(#SVGID_2_);fill:#FCFDFB;}
</style>
<g>
	<defs>
		<rect id="SVGID_1_" width="500" height="500"/>
	</defs>
	<clipPath id="SVGID_2_">
		<use xlink:href="#SVGID_1_"  style="overflow:visible;"/>
	</clipPath>
	<path class="st0" d="M43.4,463.5C54.8,429.1,65,397,76.1,365.3c2.9-8.4,2.3-14.8-1.8-22.5C7.1,213.5,89.4,57,234.4,38.3
		c116-15,223.2,70,234.9,186.2c11.3,112.5-65.6,212.7-176.8,229.6c-41.6,6.3-81.9,0.6-120.1-17.4c-6.4-3-12.1-3.9-19.3-1.9
		C117.5,444.5,81.8,453.5,43.4,463.5 M329.3,375.8c13.5-0.8,26.5-5,38.1-13.6c39.3-29.1,39.2-44.7-0.4-73.1
		c-24.6-17.6-32.8-23.9-51.9,3.2c-9.9,14-26,14-38,2.6c-22.3-21.1-43.9-42.8-65.2-65c-10-10.5-9.4-24.4,0.1-35.5
		c4.1-4.7,8.8-9.1,13.9-12.8c8-5.9,9.2-13.6,5-21.4c-9.4-17-20.6-32.8-36.2-45c-6.9-5.4-15.5-7.5-22.6-2.1
		c-21.5,16.5-40.1,35.3-40.2,65.1c-0.1,26.1,12.5,47.1,29.4,64.8c33.6,35.3,68.2,69.6,103.5,103.2
		C282.2,363.1,303.5,374.2,329.3,375.8"/>
	<path class="st1" d="M329.3,375.8c-25.9-1.6-47.1-12.7-64.6-29.4c-35.3-33.6-69.9-68-103.5-103.2c-16.9-17.7-29.5-38.8-29.4-64.8
		c0.1-29.8,18.7-48.6,40.2-65.1c7.1-5.4,15.7-3.3,22.6,2.1c15.6,12.1,26.8,27.9,36.2,45c4.3,7.8,3.1,15.5-5,21.4
		c-5.1,3.7-9.8,8.1-13.9,12.8c-9.6,11.1-10.2,25-0.1,35.5c21.2,22.1,42.9,43.9,65.2,65c12,11.4,28.1,11.4,38-2.6
		c19.1-27.1,27.3-20.8,51.9-3.2c39.6,28.4,39.7,44,0.4,73.1C355.9,370.8,342.9,375,329.3,375.8"/>
</g>
</svg>
